<svg width="24" height="24" viewBox="0 0 24 24" fill="none" xmlns="http://www.w3.org/2000/svg">
<g clip-path="url(#clip0_495_179)">
<path d="M20.108 3.87998C18.1335 1.90654 14.9217 1.90654 12.9472 3.87998L8.77246 8.0547L13.5122 12.7945C14.4878 11.9821 15.7245 11.4735 17.0902 11.4735C17.8735 11.4735 18.6189 11.6362 19.2971 11.9267L20.108 11.0408C22.0819 9.06683 22.0819 5.85454 20.108 3.87998Z" fill="#9B9B9B"/>
<path d="M12.7229 13.5964L7.97655 8.8501L3.89063 12.94C1.91667 14.914 1.91667 18.1263 3.89063 20.1008C5.86512 22.0742 9.11438 22.1118 11.0889 20.1383L11.9172 19.306C11.6267 18.6278 11.464 17.8824 11.464 17.0991C11.464 15.7685 11.9478 14.5607 12.7229 13.5964Z" fill="#9B9B9B"/>
<path d="M12.5889 17.0992C12.5889 19.3921 14.3099 21.2634 16.5269 21.5431V12.6553C14.3099 12.935 12.5889 14.8062 12.5889 17.0992Z" fill="#9B9B9B"/>
<path d="M17.6523 12.6553V21.5431C19.8694 21.2634 21.5904 19.3921 21.5904 17.0992C21.5904 14.8062 19.8695 12.935 17.6523 12.6553Z" fill="#9B9B9B"/>
</g>
<defs>
<clipPath id="clip0_495_179">
<rect width="19.2" height="19.2" fill="white" transform="translate(2.40039 2.3999)"/>
</clipPath>
</defs>
</svg>
