<svg width="20" height="20" viewBox="0 0 20 20" fill="none" xmlns="http://www.w3.org/2000/svg">
<g clip-path="url(#clip0_499_2015)">
<g clip-path="url(#clip1_499_2015)">
<path d="M11.3059 2.10974C10.5903 1.3941 9.63881 1 8.6268 1C7.6148 1 6.66332 1.3941 5.94775 2.10974L4.40137 3.65613L9.75951 9.01427L11.3059 7.46788C12.7831 5.99065 12.7831 3.58698 11.3059 2.10974Z" fill="#9B9B9B"/>
<path d="M3.65531 4.40234L2.10893 5.9487C0.63166 7.42593 0.63166 9.82961 2.10893 11.3068C2.82453 12.0225 3.77597 12.4166 4.78798 12.4166C5.79998 12.4166 6.75145 12.0225 7.46706 11.3068L9.01341 9.76049L3.65531 4.40234Z" fill="#9B9B9B"/>
<path d="M17.8908 8.6952C17.1752 7.97955 16.2238 7.58545 15.2118 7.58545C14.1998 7.58545 13.2483 7.97955 12.5327 8.6952L10.9863 10.2416L16.3445 15.5997L17.8908 14.0533C19.3681 12.5761 19.3681 10.1724 17.8908 8.6952Z" fill="#9B9B9B"/>
<path d="M10.2402 10.9878L8.69386 12.5341C7.21663 14.0114 7.21663 16.415 8.69386 17.8923C9.4325 18.6309 10.4027 19.0002 11.373 19.0002C12.3432 19.0002 13.3134 18.6309 14.052 17.8923L15.5984 16.3459L10.2402 10.9878Z" fill="#9B9B9B"/>
</g>
</g>
<defs>
<clipPath id="clip0_499_2015">
<rect width="20" height="20" fill="white"/>
</clipPath>
<clipPath id="clip1_499_2015">
<rect width="18" height="18" fill="white" transform="translate(1 1)"/>
</clipPath>
</defs>
</svg>
